<svg width="20" height="20" viewBox="0 0 20 20" fill="none" xmlns="http://www.w3.org/2000/svg">
<path d="M8.08 11.04C8.02 11.04 6.7 11.04 6.1 11.04C5.78 11.04 5.68 10.92 5.68 10.62C5.68 9.82002 5.68 9.00002 5.68 8.20002C5.68 7.88002 5.8 7.78002 6.1 7.78002H8.08C8.08 7.72002 8.08 6.56002 8.08 6.02002C8.08 5.22002 8.22 4.46002 8.62 3.76002C9.04 3.04002 9.64 2.56002 10.4 2.28002C10.9 2.10002 11.4 2.02002 11.94 2.02002H13.9C14.18 2.02002 14.3 2.14002 14.3 2.42002V4.70002C14.3 4.98002 14.18 5.10002 13.9 5.10002C13.36 5.10002 12.82 5.10002 12.28 5.12002C11.74 5.12002 11.46 5.38002 11.46 5.94002C11.44 6.54002 11.46 7.12002 11.46 7.74002H13.78C14.1 7.74002 14.22 7.86002 14.22 8.18002V10.6C14.22 10.92 14.12 11.02 13.78 11.02C13.06 11.02 11.52 11.02 11.46 11.02V17.54C11.46 17.88 11.36 18 11 18C10.16 18 9.34 18 8.5 18C8.2 18 8.08 17.88 8.08 17.58C8.08 15.48 8.08 11.1 8.08 11.04Z" fill="#060606"/>
</svg>
