<svg width="20" height="20" viewBox="0 0 20 20" fill="none" xmlns="http://www.w3.org/2000/svg">
<path d="M18.9222 9.41101L13.0888 3.57768C12.9317 3.42588 12.7212 3.34188 12.5027 3.34378C12.2842 3.34568 12.0752 3.43332 11.9207 3.58783C11.7662 3.74233 11.6785 3.95134 11.6766 4.16984C11.6747 4.38834 11.7587 4.59884 11.9105 4.75601L16.3213 9.16684H1.66634C1.44533 9.16684 1.23337 9.25464 1.07709 9.41092C0.920805 9.5672 0.833008 9.77916 0.833008 10.0002C0.833008 10.2212 0.920805 10.4332 1.07709 10.5894C1.23337 10.7457 1.44533 10.8335 1.66634 10.8335H16.3213L11.9105 15.2443C11.8309 15.3212 11.7674 15.4132 11.7238 15.5148C11.6801 15.6165 11.6571 15.7259 11.6561 15.8365C11.6552 15.9472 11.6763 16.0569 11.7182 16.1593C11.7601 16.2617 11.8219 16.3548 11.9002 16.433C11.9784 16.5112 12.0715 16.5731 12.1739 16.615C12.2763 16.6569 12.386 16.678 12.4967 16.6771C12.6073 16.6761 12.7167 16.6531 12.8183 16.6094C12.92 16.5658 13.012 16.5023 13.0888 16.4227L18.9222 10.5893C19.0784 10.4331 19.1662 10.2211 19.1662 10.0002C19.1662 9.77921 19.0784 9.56728 18.9222 9.41101Z" fill="black"/>
</svg>
