<svg width="20" height="20" viewBox="0 0 20 20" fill="none" xmlns="http://www.w3.org/2000/svg">
<path d="M17.98 5.04C17.38 5.3 16.76 5.48 16.1 5.56C16.78 5.16 17.3 4.52 17.54 3.74C16.9 4.12 16.2 4.38 15.46 4.54C14.86 3.9 14 3.5 13.06 3.5C11.24 3.5 9.78 4.98 9.78 6.78C9.78 7.04 9.8 7.28 9.86 7.52C7.14 7.4 4.74 6.08 3.12 4.1C1.96 6.18 3.26 7.9 4.12 8.48C3.6 8.48 3.08 8.32 2.64 8.08C2.64 9.7 3.78 11.04 5.26 11.34C4.94 11.44 4.22 11.5 3.78 11.4C4.2 12.7 5.42 13.66 6.84 13.68C5.72 14.56 4.08 15.26 1.98 15.04C3.44 15.98 5.16 16.52 7.02 16.52C13.06 16.52 16.34 11.52 16.34 7.2C16.34 7.06 16.34 6.92 16.32 6.78C17 6.28 17.56 5.7 17.98 5.04Z" fill="#060606"/>
</svg>
